<svg width="512" height="512" viewBox="0 0 512 512" fill="none" xmlns="http://www.w3.org/2000/svg">
<path d="M241.163 173.315C237.917 151.002 253.378 130.283 275.694 127.038L311.194 121.876C333.511 118.631 354.234 134.088 357.479 156.401L364.856 207.112C368.102 229.425 352.641 250.144 330.325 253.389L294.825 258.551C272.508 261.796 251.785 246.339 248.54 224.026L241.163 173.315Z" fill="white"/>
<path fill-rule="evenodd" clip-rule="evenodd" d="M312.594 131.495L277.094 136.657C260.09 139.13 248.311 154.916 250.784 171.916L258.161 222.627C260.634 239.627 276.422 251.404 293.425 248.932L328.925 243.769C345.929 241.297 357.708 225.511 355.235 208.511L347.858 157.8C345.386 140.8 329.597 129.023 312.594 131.495ZM275.694 127.038C253.378 130.283 237.917 151.002 241.163 173.315L248.54 224.026C251.785 246.339 272.508 261.796 294.825 258.551L330.325 253.389C352.641 250.144 368.102 229.425 364.856 207.112L357.479 156.401C354.234 134.088 333.511 118.631 311.194 121.876L275.694 127.038Z" fill="#313131"/>
<path fill-rule="evenodd" clip-rule="evenodd" d="M311.894 126.686L276.394 131.848C256.734 134.707 243.114 152.959 245.974 172.616L253.35 223.326C256.209 242.983 274.465 256.6 294.125 253.741L329.625 248.579C349.285 245.72 362.905 227.468 360.045 207.811L352.669 157.101C349.81 137.444 331.554 123.827 311.894 126.686ZM275.694 127.038C253.378 130.283 237.917 151.002 241.163 173.315L248.54 224.026C251.785 246.339 272.508 261.796 294.825 258.551L330.325 253.389C352.641 250.144 368.102 229.425 364.856 207.112L357.479 156.401C354.234 134.088 333.511 118.631 311.194 121.876L275.694 127.038Z" fill="#313131"/>
<path d="M273.002 173.889C277.585 151.812 299.2 137.629 321.281 142.211L356.406 149.5C378.487 154.082 392.672 175.694 388.09 197.771L377.674 247.946C373.091 270.023 351.476 284.206 329.395 279.624L294.27 272.335C272.189 267.753 258.004 246.141 262.587 224.064L273.002 173.889Z" fill="white"/>
<path fill-rule="evenodd" clip-rule="evenodd" d="M354.431 159.018L319.306 151.729C302.482 148.238 286.013 159.044 282.521 175.864L272.106 226.039C268.615 242.86 279.422 259.326 296.246 262.817L331.371 270.106C348.194 273.597 364.663 262.791 368.155 245.97L378.57 195.796C382.062 178.975 371.254 162.509 354.431 159.018ZM321.281 142.211C299.2 137.629 277.585 151.812 273.002 173.889L262.587 224.064C258.004 246.141 272.189 267.753 294.27 272.335L329.395 279.624C351.476 284.206 373.091 270.023 377.674 247.946L388.09 197.771C392.672 175.694 378.487 154.082 356.406 149.5L321.281 142.211Z" fill="#313131"/>
<path fill-rule="evenodd" clip-rule="evenodd" d="M355.418 154.259L320.294 146.97C300.841 142.933 281.799 155.428 277.762 174.877L267.347 225.051C263.309 244.5 275.806 263.539 295.258 267.576L330.383 274.865C349.835 278.901 368.877 266.407 372.915 246.958L383.33 196.783C387.367 177.334 374.871 158.295 355.418 154.259ZM321.281 142.211C299.2 137.629 277.585 151.812 273.002 173.889L262.587 224.064C258.004 246.141 272.189 267.753 294.27 272.335L329.395 279.624C351.476 284.206 373.091 270.023 377.674 247.946L388.09 197.771C392.672 175.694 378.487 154.082 356.406 149.5L321.281 142.211Z" fill="#313131"/>
<path d="M301.319 185.015C313.178 165.836 338.341 159.9 357.523 171.757L388.036 190.617C407.218 202.474 413.155 227.633 401.296 246.812L374.346 290.399C362.487 309.578 337.324 315.513 318.142 303.657L287.628 284.796C268.446 272.939 262.51 247.78 274.368 228.602L301.319 185.015Z" fill="white"/>
<path fill-rule="evenodd" clip-rule="evenodd" d="M382.924 198.886L352.411 180.025C337.796 170.991 318.624 175.514 309.589 190.126L282.638 233.713C273.603 248.326 278.126 267.494 292.741 276.528L323.254 295.389C337.869 304.422 357.041 299.9 366.076 285.287L393.027 241.7C402.062 227.088 397.539 207.919 382.924 198.886ZM357.523 171.757C338.341 159.9 313.178 165.836 301.319 185.015L274.368 228.602C262.51 247.78 268.446 272.939 287.628 284.796L318.142 303.657C337.324 315.513 362.487 309.578 374.346 290.399L401.296 246.812C413.155 227.633 407.218 202.474 388.036 190.617L357.523 171.757Z" fill="#313131"/>
<path fill-rule="evenodd" clip-rule="evenodd" d="M385.48 194.751L354.967 175.891C338.068 165.446 315.901 170.675 305.454 187.57L278.503 231.157C268.056 248.053 273.286 270.217 290.185 280.662L320.698 299.523C337.596 309.968 359.764 304.739 370.211 287.843L397.162 244.256C407.609 227.361 402.379 205.197 385.48 194.751ZM357.523 171.757C338.341 159.9 313.178 165.836 301.319 185.015L274.368 228.602C262.51 247.78 268.446 272.939 287.628 284.796L318.142 303.657C337.324 315.513 362.487 309.578 374.346 290.399L401.296 246.812C413.155 227.633 407.218 202.474 388.036 190.617L357.523 171.757Z" fill="#313131"/>
<path d="M326.135 205.043C343.839 191.076 369.516 194.103 383.485 211.804L405.706 239.961C419.676 257.663 416.648 283.335 398.944 297.301L358.708 329.044C341.004 343.011 315.328 339.983 301.359 322.282L279.137 294.125C265.168 276.424 268.196 250.752 285.9 236.785L326.135 205.043Z" fill="white"/>
<path fill-rule="evenodd" clip-rule="evenodd" d="M398.074 245.983L375.853 217.825C365.209 204.339 345.646 202.032 332.158 212.674L291.922 244.416C278.433 255.057 276.126 274.617 286.77 288.104L308.991 316.261C319.634 329.748 339.197 332.054 352.686 321.413L392.922 289.67C406.41 279.029 408.717 259.469 398.074 245.983ZM383.485 211.804C369.516 194.103 343.839 191.076 326.135 205.043L285.9 236.785C268.196 250.752 265.168 276.424 279.137 294.125L301.359 322.282C315.328 339.983 341.004 343.011 358.708 329.044L398.944 297.301C416.648 283.335 419.676 257.663 405.706 239.961L383.485 211.804Z" fill="#313131"/>
<path fill-rule="evenodd" clip-rule="evenodd" d="M401.89 242.972L379.669 214.815C367.363 199.221 344.743 196.554 329.146 208.858L288.911 240.6C273.314 252.905 270.647 275.52 282.953 291.114L305.175 319.272C317.481 334.866 340.101 337.532 355.697 325.228L395.933 293.486C411.529 281.182 414.196 258.566 401.89 242.972ZM383.485 211.804C369.516 194.103 343.839 191.076 326.135 205.043L285.9 236.785C268.196 250.752 265.168 276.424 279.137 294.125L301.359 322.282C315.328 339.983 341.004 343.011 358.708 329.044L398.944 297.301C416.648 283.335 419.676 257.663 405.706 239.961L383.485 211.804Z" fill="#313131"/>
<path d="M262.466 347.786C263.943 370.285 246.898 389.721 224.394 391.198L188.598 393.547C166.095 395.023 146.655 377.981 145.179 355.481L141.822 304.347C140.346 281.848 157.391 262.412 179.894 260.935L215.691 258.587C238.194 257.11 257.634 274.153 259.11 296.652L262.466 347.786Z" fill="white"/>
<path fill-rule="evenodd" clip-rule="evenodd" d="M187.961 383.847L223.758 381.498C240.903 380.373 253.89 365.565 252.765 348.422L249.409 297.289C248.284 280.146 233.473 267.161 216.327 268.286L180.531 270.635C163.386 271.76 150.399 286.568 151.524 303.711L154.88 354.845C156.005 371.987 170.816 384.972 187.961 383.847ZM224.394 391.198C246.898 389.721 263.943 370.285 262.466 347.786L259.11 296.652C257.634 274.153 238.194 257.11 215.691 258.587L179.894 260.935C157.391 262.412 140.346 281.848 141.822 304.347L145.179 355.481C146.655 377.981 166.095 395.023 188.598 393.547L224.394 391.198Z" fill="#313131"/>
<path fill-rule="evenodd" clip-rule="evenodd" d="M188.28 388.697L224.076 386.348C243.9 385.047 258.917 367.925 257.616 348.104L254.26 296.97C252.959 277.149 235.833 262.136 216.009 263.436L180.213 265.785C160.388 267.086 145.372 284.208 146.673 304.029L150.029 355.163C151.33 374.984 168.455 389.997 188.28 388.697ZM224.394 391.198C246.898 389.721 263.943 370.285 262.466 347.786L259.11 296.652C257.634 274.153 238.194 257.11 215.691 258.587L179.894 260.935C157.391 262.412 140.346 281.848 141.822 304.347L145.179 355.481C146.655 377.981 166.095 395.023 188.598 393.547L224.394 391.198Z" fill="#313131"/>
<path d="M230.772 344.705C224.463 366.352 201.797 378.788 180.146 372.48L145.705 362.446C124.054 356.138 111.616 333.476 117.925 311.828L132.263 262.63C138.572 240.983 161.239 228.548 182.89 234.855L217.331 244.89C238.982 251.197 251.419 273.86 245.11 295.507L230.772 344.705Z" fill="white"/>
<path fill-rule="evenodd" clip-rule="evenodd" d="M148.425 353.113L182.866 363.147C199.362 367.953 216.631 358.479 221.438 341.985L235.776 292.788C240.583 276.294 231.107 259.028 214.611 254.222L180.17 244.188C163.674 239.382 146.404 248.856 141.598 265.35L127.259 314.547C122.453 331.041 131.929 348.307 148.425 353.113ZM180.146 372.48C201.797 378.788 224.463 366.352 230.772 344.705L245.11 295.507C251.419 273.86 238.982 251.197 217.331 244.89L182.89 234.855C161.239 228.548 138.572 240.983 132.263 262.63L117.925 311.828C111.616 333.476 124.054 356.138 145.705 362.446L180.146 372.48Z" fill="#313131"/>
<path fill-rule="evenodd" clip-rule="evenodd" d="M147.065 357.779L181.506 367.814C200.58 373.37 220.547 362.416 226.105 343.345L240.443 294.147C246.001 275.077 235.045 255.113 215.971 249.556L181.53 239.522C162.456 233.965 142.488 244.92 136.931 263.99L122.592 313.188C117.035 332.258 127.991 352.223 147.065 357.779ZM180.146 372.48C201.797 378.788 224.463 366.352 230.772 344.705L245.11 295.507C251.419 273.86 238.982 251.197 217.331 244.89L182.89 234.855C161.239 228.548 138.572 240.983 132.263 262.63L117.925 311.828C111.616 333.476 124.054 356.138 145.705 362.446L180.146 372.48Z" fill="#313131"/>
<path d="M203.419 331.383C190.085 349.568 164.532 353.502 146.344 340.171L117.413 318.964C99.2251 305.633 95.2902 280.084 108.624 261.9L138.927 220.572C152.26 202.387 177.813 198.453 196.001 211.784L224.932 232.991C243.12 246.322 247.055 271.871 233.722 290.055L203.419 331.383Z" fill="white"/>
<path fill-rule="evenodd" clip-rule="evenodd" d="M123.161 311.125L152.093 332.331C165.95 342.488 185.419 339.491 195.578 325.636L225.881 284.308C236.04 270.453 233.041 250.988 219.184 240.83L190.253 219.624C176.395 209.467 156.926 212.464 146.767 226.319L116.465 267.647C106.306 281.502 109.304 300.968 123.161 311.125ZM146.344 340.171C164.532 353.502 190.085 349.568 203.419 331.383L233.722 290.055C247.055 271.871 243.12 246.322 224.932 232.991L196.001 211.784C177.813 198.453 152.26 202.387 138.927 220.572L108.624 261.9C95.2902 280.084 99.2251 305.633 117.413 318.964L146.344 340.171Z" fill="#313131"/>
<path fill-rule="evenodd" clip-rule="evenodd" d="M120.287 315.044L149.219 336.251C165.241 347.995 187.752 344.529 199.498 328.509L229.801 287.182C241.547 271.162 238.081 248.655 222.058 236.911L193.127 215.704C177.104 203.96 154.593 207.426 142.847 223.446L112.544 264.773C100.798 280.793 104.264 303.3 120.287 315.044ZM146.344 340.171C164.532 353.502 190.085 349.568 203.419 331.383L233.722 290.055C247.055 271.871 243.12 246.322 224.932 232.991L196.001 211.784C177.813 198.453 152.26 202.387 138.927 220.572L108.624 261.9C95.2902 280.084 99.2251 305.633 117.413 318.964L146.344 340.171Z" fill="#313131"/>
<path d="M180.259 309.462C161.509 321.99 136.151 316.949 123.621 298.202L103.688 268.381C91.158 249.634 96.2 224.281 114.95 211.752L157.563 183.28C176.313 170.751 201.67 175.792 214.201 194.539L234.133 224.36C246.664 243.107 241.622 268.461 222.872 280.989L180.259 309.462Z" fill="white"/>
<path fill-rule="evenodd" clip-rule="evenodd" d="M111.772 262.98L131.704 292.801C141.251 307.084 160.572 310.925 174.857 301.38L217.47 272.907C231.756 263.362 235.597 244.045 226.05 229.761L206.118 199.94C196.571 185.657 177.25 181.816 162.965 191.362L120.352 219.834C106.066 229.38 102.225 248.697 111.772 262.98ZM123.621 298.202C136.151 316.949 161.509 321.99 180.259 309.462L222.872 280.989C241.622 268.461 246.664 243.107 234.133 224.36L214.201 194.539C201.67 175.792 176.313 170.751 157.563 183.28L114.95 211.752C96.2 224.281 91.158 249.634 103.688 268.381L123.621 298.202Z" fill="#313131"/>
<path fill-rule="evenodd" clip-rule="evenodd" d="M107.73 265.681L127.663 295.502C138.701 312.017 161.04 316.458 177.558 305.421L220.171 276.948C236.689 265.911 241.131 243.576 230.092 227.061L210.159 197.24C199.121 180.725 176.782 176.284 160.264 187.321L117.651 215.793C101.133 226.83 96.6914 249.166 107.73 265.681ZM123.621 298.202C136.151 316.949 161.509 321.99 180.259 309.462L222.872 280.989C241.622 268.461 246.664 243.107 234.133 224.36L214.201 194.539C201.67 175.792 176.313 170.751 157.563 183.28L114.95 211.752C96.2 224.281 91.158 249.634 103.688 268.381L123.621 298.202Z" fill="#313131"/>
</svg>
